{"title":"Rickie Lee Jones - Girl At Her Volcano (Japanese Remaster)","uid":4847181,"size":141338955,"categoryP":"audio","categoryS":"flac","magnet":"?xt=urn:btih:00330bbae523e8cbad369bf77a5610de09b2b086&amp;dn=Rickie+Lee+Jones+-+Girl+At+Her+Volcano+%28Japanese+Remaster%29&amp;tr=udp%3A%2F%2Ftracker.openbittorrent.com%3A80&amp;tr=udp%3A%2F%2Fopen.demonii.com%3A1337&amp;tr=udp%3A%2F%2Ftracker.coppersurfer.tk%3A6969&amp;tr=udp%3A%2F%2Fexodus.desync.com%3A6969","seeders":1,"leechers":0,"uploader":"ludedude","files":9,"time":1239730276,"description":"Exact Audio Copy V0.99 prebeta 3 from 28. July 2007\n\nEAC extraction logfile from 14. April 2009, 23:10\n\nRickie Lee Jones / Girl At Her Volcano (Japanese Remaster)\n\nUsed drive  : PIONEER DVD-RW DVR-K17LF   Adapter: 1  ID: 0\n\nRead mode               : Secure\nUtilize accurate stream : Yes\nDefeat audio cache      : Yes\nMake use of C2 pointers : No\n\nRead offset correction                      : 48\nOverread into Lead-In and Lead-Out          : No\nFill up missing offset samples with silence : Yes\nDelete leading and trailing silent blocks   : No\nNull samples used in CRC calculations       : No\nUsed interface                              : Native Win32 interface for Win NT &amp; 2000\nGap handling                                : Not detected, thus appended to previous track\n\nUsed output format : Internal WAV Routines\nSample format      : 44.100 Hz; 16 Bit; Stereo\n\n\nTOC of the extracted CD\n\n     Track |   Start  |  Length  | Start sector | End sector \n    ---------------------------------------------------------\n        1  |  0:00.00 |  5:28.35 |         0    |    24634   \n        2  |  5:28.35 |  4:28.20 |     24635    |    44754   \n        3  |  9:56.55 |  2:20.22 |     44755    |    55276   \n        4  | 12:17.02 |  3:50.48 |     55277    |    72574   \n        5  | 16:07.50 |  3:22.45 |     72575    |    87769   \n        6  | 19:30.20 |  3:41.12 |     87770    |   104356   \n        7  | 23:11.32 |  2:06.20 |    104357    |   113826   \n        8  | 25:17.52 |  5:36.18 |    113827    |   139044   \n\n\nTrack  1\n\n     Filename C:My MusicRickie Lee JonesRickie Lee Jones - Girl At Her Volcano (Japanese Remaster) - 01 - Lush Life.wav\n\n     Peak level 51.2 %\n     Track quality 100.0 %\n     Copy CRC 6920BB53\n     Accurately ripped (confidence 5)  [3D4784C4]\n     Copy OK\n\nTrack  2\n\n     Filename C:My MusicRickie Lee JonesRickie Lee Jones - Girl At Her Volcano (Japanese Remaster) - 02 - Letters From The 9th Ward,Walk Away Rene.wav\n\n     Peak level 68.7 %\n     Track quality 100.0 %\n     Copy CRC 346C02FD\n     Accurately ripped (confidence 5)  [45A3988E]\n     Copy OK\n\nTrack  3\n\n     Filename C:My MusicRickie Lee JonesRickie Lee Jones - Girl At Her Volcano (Japanese Remaster) - 03 - Hey, Bub.wav\n\n     Peak level 41.7 %\n     Track quality 100.0 %\n     Copy CRC 35E5DD88\n     Accurately ripped (confidence 5)  [B6FCC9A9]\n     Copy OK\n\nTrack  4\n\n     Filename C:My MusicRickie Lee JonesRickie Lee Jones - Girl At Her Volcano (Japanese Remaster) - 04 - My Funny Valentine.wav\n\n     Peak level 48.6 %\n     Track quality 100.0 %\n     Copy CRC 27B0A02B\n     Accurately ripped (confidence 5)  [973230D5]\n     Copy OK\n\nTrack  5\n\n     Filename C:My MusicRickie Lee JonesRickie Lee Jones - Girl At Her Volcano (Japanese Remaster) - 05 - Under The Boardwalk.wav\n\n     Peak level 100.0 %\n     Track quality 100.0 %\n     Copy CRC FCD8995A\n     Accurately ripped (confidence 6)  [55195C3D]\n     Copy OK\n\nTrack  6\n\n     Filename C:My MusicRickie Lee JonesRickie Lee Jones - Girl At Her Volcano (Japanese Remaster) - 06 - Rainbow Sleeves.wav\n\n     Peak level 53.1 %\n     Track quality 99.9 %\n     Copy CRC 1E1380AF\n     Accurately ripped (confidence 5)  [E2399B8A]\n     Copy OK\n\nTrack  7\n\n     Filename C:My MusicRickie Lee JonesRickie Lee Jones - Girl At Her Volcano (Japanese Remaster) - 07 - So Long.wav\n\n     Peak level 34.5 %\n     Track quality 100.0 %\n     Copy CRC 62F8B61B\n     Accurately ripped (confidence 5)  [5974826B]\n     Copy OK\n\nTrack  8\n\n     Filename C:My MusicRickie Lee JonesRickie Lee Jones - Girl At Her Volcano (Japanese Remaster) - 08 - Something Cool.wav\n\n     Peak level 35.6 %\n     Track quality 100.0 %\n     Copy CRC CEDA306F\n     Accurately ripped (confidence 5)  [A8F8EF05]\n     Copy OK\n\n\nAll tracks accurately ripped\n\nNo errors occurred\n\nEnd of status report\n","torrent":{"xt":"urn:btih:00330bbae523e8cbad369bf77a5610de09b2b086","amp;dn":"Rickie+Lee+Jones+-+Girl+At+Her+Volcano+%28Japanese+Remaster%29","amp;tr":["udp%3A%2F%2Ftracker.openbittorrent.com%3A80","udp%3A%2F%2Fopen.demonii.com%3A1337","udp%3A%2F%2Ftracker.coppersurfer.tk%3A6969","udp%3A%2F%2Fexodus.desync.com%3A6969"],"infoHash":"00330bbae523e8cbad369bf77a5610de09b2b086","infoHashBuffer":{"type":"Buffer","data":[0,51,11,186,229,35,232,203,173,54,155,247,122,86,16,222,9,178,176,134]},"announce":[],"urlList":[]}}